# xmcd
# 
# Track frame offsets:
#     183
#     14605
#     25113
#     38638
#     50280
#     61015
#     73973
#     85303
#     98913
#     112823
#     128735
#     141818
#     157093
#     171173
#     183485
#     196078
# 
# Disc length: 2785
# 
# Revision: 1
# Processed by: cddbd v1.5.2PL0 Copyright (c) Steve Scherf et al.
# Submitted via: fre:ac v1.0.17
# 
DISCID=d30adf10
DTITLE=Altemar Dutra - Sentimental
DYEAR=1989
DGENRE=Bolero
TTITLE0=Brigas
TTITLE1=As Rosas Não Falam
TTITLE2=Tudo de Mim
TTITLE3=Creio em Ti
TTITLE4=Sentimental Demais
TTITLE5=A Pretendida
TTITLE6=As Folhas Verdes do Verão
TTITLE7=Senhora
TTITLE8=Somos Iguais
TTITLE9=Número Um
TTITLE10=Meu Velho
TTITLE11=Eu Nunca Mais Vou Te Esquecer
TTITLE12=Cabecinha no Ombro
TTITLE13=Que Queres Tu de Mim
TTITLE14=Estranho Amor
TTITLE15=O Trovador
EXTD=
EXTT0=
EXTT1=
EXTT2=
EXTT3=
EXTT4=
EXTT5=
EXTT6=
EXTT7=
EXTT8=
EXTT9=
EXTT10=
EXTT11=
EXTT12=
EXTT13=
EXTT14=
EXTT15=
PLAYORDER=
